<mxfile host="app.diagrams.net" modified="2024-06-14T23:50:30.314Z" agent="Mozilla/5.0 (X11; Linux x86_64; rv:127.0) Gecko/20100101 Firefox/127.0" etag="03cMB1lvqVqLavsgN1i7" version="24.5.4" type="github">
  <diagram name="Страница — 1" id="dWPZbyHKNFky_QBxorTR">
    <mxGraphModel dx="1434" dy="752" grid="1" gridSize="10" guides="1" tooltips="1" connect="1" arrows="1" fold="1" page="1" pageScale="1" pageWidth="827" pageHeight="1169" math="0" shadow="0">
      <root>
        <mxCell id="0" />
        <mxCell id="1" parent="0" />
        <mxCell id="-4ySxjFKBCZBjsnX5pwf-11" value="" style="ellipse;whiteSpace=wrap;html=1;" parent="1" vertex="1">
          <mxGeometry x="340" y="30" width="120" height="80" as="geometry" />
        </mxCell>
        <mxCell id="cuDGaJzidRndHCtAnRfq-1" value="" style="rounded=0;whiteSpace=wrap;html=1;" parent="1" vertex="1">
          <mxGeometry x="130" y="50" width="120" height="60" as="geometry" />
        </mxCell>
        <mxCell id="cP2EndUIp1jSISV1-yiL-1" value="" style="rounded=0;whiteSpace=wrap;html=1;" vertex="1" parent="1">
          <mxGeometry x="340" y="190" width="120" height="60" as="geometry" />
        </mxCell>
        <mxCell id="cP2EndUIp1jSISV1-yiL-2" value="" style="ellipse;whiteSpace=wrap;html=1;aspect=fixed;" vertex="1" parent="1">
          <mxGeometry x="150" y="180" width="80" height="80" as="geometry" />
        </mxCell>
      </root>
    </mxGraphModel>
  </diagram>
</mxfile>
